<svg width="13" height="20" viewBox="0 0 13 20" fill="none" xmlns="http://www.w3.org/2000/svg">
<path d="M4.55729 10.0024L11.772 2.78735C11.9707 2.58916 12.08 2.32418 12.08 2.04164C12.08 1.75894 11.9707 1.49411 11.772 1.29561L11.1398 0.663727C10.9415 0.464911 10.6763 0.355469 10.3938 0.355469C10.1113 0.355469 9.84643 0.464911 9.64793 0.663727L1.05763 9.25387C0.858349 9.453 0.74922 9.71908 0.750004 10.0019C0.74922 10.286 0.858192 10.5518 1.05763 10.7511L9.63993 19.3329C9.83844 19.5317 10.1033 19.6412 10.386 19.6412C10.6685 19.6412 10.9333 19.5317 11.132 19.3329L11.764 18.701C12.1753 18.2898 12.1753 17.6203 11.764 17.2091L4.55729 10.0024Z" fill="#214D7C"/>
</svg>
