<svg width="20" height="20" viewBox="0 0 20 20" fill="none" xmlns="http://www.w3.org/2000/svg">
<path d="M15.7452 4.42803L7.77354 12.7079L4.24853 9.04665C3.73918 8.5176 2.92261 8.5176 2.41326 9.04665C1.90391 9.57569 1.90391 10.4238 2.41326 10.9529L6.85995 15.5715C7.11058 15.8318 7.44206 15.9662 7.77354 15.9662C8.10503 15.9662 8.43651 15.8318 8.69522 15.5715L17.5805 6.33426C18.0899 5.80522 18.0899 4.95707 17.5805 4.42803C17.0793 3.89899 16.2546 3.89899 15.7452 4.42803Z" fill="white"/>
<path d="M7.7807 16C7.42496 16 7.0854 15.8572 6.83477 15.5969L2.38808 10.9783C2.13744 10.718 2 10.3653 2 9.9958C2 9.62631 2.13744 9.27362 2.38808 9.0133C2.63871 8.75297 2.97827 8.61022 3.33401 8.61022C3.68974 8.61022 4.02931 8.75297 4.27994 9.0133L7.7807 12.6494L15.7201 4.40308C15.9707 4.14276 16.3103 4 16.666 4C17.0217 4 17.3613 4.14276 17.6119 4.40308C17.8626 4.6634 18 5.0161 18 5.38558C18 5.75507 17.8626 6.10777 17.6119 6.36809L8.72663 15.5969C8.476 15.8572 8.14452 16 7.7807 16ZM3.34209 8.69419C3.00253 8.69419 2.68722 8.82855 2.45275 9.08048C2.21829 9.324 2.08085 9.6515 2.08085 10.0042C2.08085 10.3569 2.21021 10.6844 2.45275 10.9279L6.89944 15.5465C7.13391 15.7901 7.44922 15.9328 7.78878 15.9328C8.12835 15.9328 8.44366 15.7985 8.67812 15.5465L17.5634 6.30091C17.7979 6.05738 17.9353 5.72988 17.9353 5.37719C17.9353 5.02449 17.806 4.69699 17.5634 4.45346C17.3209 4.20994 17.0056 4.07558 16.6741 4.07558C16.3426 4.07558 16.0354 4.20994 15.8009 4.44507L7.78878 12.767L7.75644 12.7334L4.23143 9.07208C3.98888 8.82855 3.67357 8.69419 3.34209 8.69419Z" fill="white"/>
</svg>
